<?xml version="1.0" standalone="no"?>
<!DOCTYPE svg PUBLIC "-//W3C//DTD SVG 20010904//EN"
 "http://www.w3.org/TR/2001/REC-SVG-20010904/DTD/svg10.dtd">
<svg version="1.0" xmlns="http://www.w3.org/2000/svg"
 width="472.000000pt" height="472.000000pt" viewBox="0 0 472.000000 472.000000"
 preserveAspectRatio="xMidYMid meet">
<metadata>
Created by potrace 1.16, written by Peter Selinger 2001-2019
</metadata>
<g transform="translate(0.000000,472.000000) scale(0.100000,-0.100000)"
fill="#000000" stroke="none">
<path d="M2085 4709 c-275 -34 -497 -98 -747 -216 -86 -41 -98 -50 -98 -72 0
-14 -7 -35 -16 -46 -8 -11 -23 -47 -33 -81 -11 -33 -29 -82 -41 -108 -13 -26
-20 -49 -17 -52 3 -3 65 4 139 15 129 20 445 54 501 54 l28 0 -6 81 c-8 96 0
112 61 122 61 9 84 -17 84 -95 0 -33 2 -65 5 -73 4 -10 33 -12 140 -7 74 3
137 7 139 10 2 2 6 32 10 67 7 62 0 76 -24 47 -16 -20 -30 -10 -30 21 0 32 18
66 31 59 5 -4 9 -2 9 3 0 5 9 21 21 36 l20 26 30 -29 c16 -16 29 -38 29 -48 0
-22 -25 -94 -46 -135 -19 -37 -12 -58 18 -58 37 0 47 13 68 86 32 113 62 184
76 184 8 0 14 -1 14 -3 0 -1 14 -49 30 -107 17 -58 30 -115 30 -126 0 -26 50
-40 178 -48 l84 -6 -7 63 -7 62 20 -20 c11 -11 24 -40 29 -64 l8 -44 70 -16
69 -16 13 -50 c7 -27 17 -151 23 -275 6 -124 18 -288 26 -365 11 -99 15 -229
14 -448 -2 -277 -1 -307 14 -301 8 3 25 20 36 37 23 37 66 87 75 87 12 0 3
-36 -22 -81 -14 -27 -24 -52 -21 -55 3 -3 21 9 39 25 18 17 37 31 41 31 5 0 8
11 8 25 0 14 26 76 58 138 32 61 68 136 80 165 35 81 62 67 62 -30 0 -47 -3
-54 -40 -88 -36 -33 -53 -70 -32 -70 5 0 34 25 66 56 32 30 63 53 69 51 7 -2
13 -20 15 -41 5 -56 27 -40 27 20 0 43 -3 49 -23 52 -22 3 -46 34 -35 46 3 3
24 6 46 6 42 0 116 18 132 32 5 5 -23 8 -65 7 -83 -3 -109 7 -130 46 -20 37
-4 58 53 69 34 7 47 14 47 27 0 17 74 59 105 59 9 0 23 -17 33 -37 13 -30 17
-34 19 -18 4 19 -22 95 -32 95 -5 0 -122 -53 -178 -81 -71 -35 -79 -26 -48 55
22 58 57 90 123 112 39 13 53 13 89 3 48 -15 101 -65 119 -112 7 -18 17 -43
24 -56 6 -14 11 -77 11 -155 0 -121 -2 -137 -29 -205 -21 -54 -41 -86 -74
-118 -25 -23 -49 -43 -53 -43 -5 0 -28 -13 -52 -30 -24 -16 -90 -50 -147 -76
-97 -44 -107 -46 -163 -40 -33 3 -71 13 -83 21 -36 24 -55 18 -111 -35 l-53
-49 0 -125 c0 -113 2 -126 18 -126 33 0 44 14 32 45 -7 20 -7 31 1 41 20 24
29 5 29 -62 0 -95 30 -81 44 21 14 101 18 103 97 46 68 -48 97 -63 108 -57 5
3 2 32 -5 63 -16 69 -18 103 -4 103 5 0 25 -13 43 -30 19 -16 38 -30 41 -30 4
0 4 30 1 68 -10 99 -3 109 116 171 148 76 222 152 254 261 4 14 12 31 18 38 6
8 13 67 15 133 3 88 8 119 17 119 7 0 39 -13 70 -30 31 -16 59 -30 61 -30 13
0 -1 26 -32 56 -34 35 -41 62 -13 56 8 -2 48 -16 90 -32 77 -29 159 -48 159
-36 0 3 -24 30 -52 59 -29 30 -68 84 -87 121 -28 57 -32 74 -27 109 8 45 -8
243 -25 319 -14 63 -4 76 29 41 41 -43 102 -119 102 -127 0 -4 15 -27 34 -51
18 -24 44 -69 57 -99 13 -31 27 -56 32 -56 11 0 8 132 -4 190 -27 127 -372
457 -656 628 -311 188 -607 289 -973 332 -100 12 -435 11 -535 -1z"/>
<path d="M1050 4332 c-40 -26 -191 -142 -247 -190 -61 -53 -62 -58 -72 -269
-3 -83 -9 -155 -13 -158 -4 -4 -11 -4 -17 0 -13 7 -14 215 -2 288 7 45 7 46
-10 31 -29 -26 -40 -129 -38 -366 1 -142 -3 -246 -11 -285 -15 -75 -9 -238 9
-256 10 -10 12 1 10 53 -3 81 8 145 28 162 13 10 19 8 40 -17 48 -59 83 -152
83 -222 0 -37 -69 -204 -96 -235 -18 -19 -18 -19 11 -12 17 4 54 27 84 51 65
53 84 46 54 -19 -49 -105 -33 -119 36 -31 l44 56 -7 106 c-3 58 -10 167 -16
241 -32 459 -36 783 -10 815 6 7 27 16 48 19 68 13 72 15 72 50 0 18 13 72 29
119 16 48 26 87 22 86 -3 0 -17 -7 -31 -17z"/>
<path d="M1278 3653 c-116 -72 -9 -241 112 -178 37 19 50 43 50 92 -1 82 -90
130 -162 86z"/>
<path d="M2544 3663 c-69 -13 -94 -118 -41 -170 53 -54 159 -28 179 43 13 46
0 80 -41 108 -36 25 -51 28 -97 19z"/>
<path d="M1647 3443 c-12 -11 -8 -98 5 -111 14 -14 564 -17 586 -3 9 5 12 25
10 62 l-3 54 -296 3 c-162 1 -298 -1 -302 -5z"/>
<path d="M1310 3023 c-87 -6 -85 -5 -104 -90 -10 -43 -24 -105 -31 -138 -45
-200 -45 -197 21 -199 l38 -1 63 150 c35 83 75 175 88 206 38 86 43 81 -75 72z"/>
<path d="M2550 3023 c-76 -6 -87 -11 -93 -40 -6 -39 -45 -214 -63 -293 -16
-63 -16 -64 6 -82 12 -10 33 -18 47 -18 25 0 23 -3 98 165 7 17 22 50 33 75
46 103 73 180 67 190 -3 5 -16 9 -28 8 -12 -1 -42 -3 -67 -5z"/>
<path d="M3042 2188 c0 -40 7 -98 15 -128 19 -78 16 -113 -14 -188 -23 -60
-95 -175 -130 -211 -8 -7 -23 -29 -34 -50 -11 -20 -33 -58 -50 -86 l-30 -50
31 35 c53 61 150 189 150 199 0 5 9 11 20 14 25 7 25 1 -4 -59 -118 -242 -127
-264 -118 -281 11 -22 12 -20 -53 -168 -29 -66 -58 -145 -65 -175 -7 -30 -20
-75 -30 -100 -20 -49 -55 -147 -90 -250 -12 -36 -53 -126 -90 -200 -68 -137
-81 -162 -189 -355 -33 -60 -61 -115 -61 -122 0 -26 28 -12 44 21 8 18 22 39
31 46 8 7 15 18 15 24 0 20 40 98 70 136 15 19 33 53 40 75 11 35 43 90 61
105 8 7 137 301 144 330 6 26 14 47 33 90 7 14 25 68 43 120 17 52 43 127 59
165 27 68 39 102 95 270 14 44 33 94 40 110 8 17 17 51 21 77 3 26 12 53 20
59 8 6 14 18 14 27 0 15 18 81 45 167 7 22 18 60 25 85 7 25 14 51 16 57 6 23
32 2 49 -39 22 -57 73 -96 89 -69 3 4 -8 29 -26 55 -21 33 -28 50 -20 58 15
15 113 -32 176 -85 64 -53 129 -97 143 -97 7 0 42 -21 79 -46 38 -26 100 -63
139 -83 78 -41 343 -237 419 -309 26 -26 57 -65 68 -87 12 -22 31 -54 44 -71
13 -16 33 -52 45 -78 19 -43 23 -47 36 -33 14 14 13 20 -12 64 -15 26 -37 66
-48 88 -22 44 -165 190 -240 245 -27 19 -71 52 -99 73 -27 22 -86 61 -131 88
-44 27 -88 55 -96 63 -9 8 -63 40 -121 72 -103 57 -170 101 -200 133 -29 32
-160 103 -197 108 -45 6 -59 15 -94 63 -29 40 -46 80 -55 133 -11 62 -24 42
-22 -35z"/>
<path d="M1799 2098 c-11 -4 -19 -17 -19 -29 0 -13 -18 -39 -44 -63 -60 -55
-76 -95 -69 -175 5 -54 -11 -328 -22 -387 -5 -24 -45 -48 -82 -49 -15 0 -28
-6 -30 -12 -5 -14 51 -16 146 -5 52 7 55 9 64 42 8 34 42 80 59 80 15 0 8 -45
-12 -70 -31 -39 -25 -50 25 -50 l45 0 1 48 c1 78 16 268 33 412 9 74 19 163
22 196 l7 62 -52 3 c-29 2 -61 1 -72 -3z m78 -43 c12 -21 -4 -225 -20 -264
l-14 -32 -11 39 c-7 22 -18 44 -25 50 -11 9 -12 -15 -9 -131 l4 -143 -27 -32
c-31 -38 -53 -41 -59 -9 -3 12 -7 101 -11 197 -5 171 -5 176 18 220 23 43 109
120 134 120 7 0 16 -7 20 -15z"/>
<path d="M2033 2103 l-53 -4 0 -42 c0 -23 -7 -109 -16 -192 -8 -82 -19 -197
-24 -255 -4 -58 -14 -131 -21 -162 -14 -68 -4 -88 44 -88 l31 0 -23 22 c-22
20 -23 27 -18 97 3 42 13 95 21 118 10 28 13 65 10 115 -2 40 4 133 13 208 16
122 20 135 38 135 26 0 65 -69 65 -115 0 -43 -21 -113 -51 -171 -27 -52 -30
-122 -10 -217 9 -38 12 -89 8 -131 -5 -64 -4 -69 16 -75 11 -3 23 -3 25 -1 2
2 -1 35 -7 74 -22 139 -9 312 31 416 15 40 15 40 33 25 9 -7 15 -30 16 -54 1
-22 4 -52 8 -66 6 -21 9 -17 18 28 13 68 5 103 -46 197 -54 98 -52 116 14 132
l50 11 -60 -1 c-33 0 -84 -2 -112 -4z"/>
<path d="M1600 1860 c-8 -4 -33 -17 -55 -28 -22 -11 -76 -35 -120 -52 -149
-58 -347 -179 -441 -267 -127 -118 -239 -295 -274 -428 -17 -68 -35 -124 -54
-165 -8 -19 -22 -61 -32 -92 -13 -47 -14 -61 -4 -73 17 -21 30 -9 30 26 0 30
41 166 60 201 6 10 10 23 10 28 0 18 54 140 63 140 8 0 10 -17 7 -72 -1 -22 3
-38 9 -38 12 0 13 4 11 118 -1 66 3 92 20 126 30 63 262 296 294 296 3 0 23
11 44 24 57 37 161 94 220 122 157 72 200 95 217 114 20 22 18 32 -5 20z"/>
<path d="M2467 1843 c-4 -3 -7 -18 -7 -32 0 -36 -33 -87 -68 -105 -64 -33
-101 -125 -117 -286 -9 -96 -13 -107 -37 -113 -17 -5 -19 -9 -9 -21 6 -8 23
-17 37 -20 14 -4 36 -19 50 -34 l23 -27 1 31 c0 16 -7 39 -15 50 -17 22 -18
87 -5 194 17 133 28 157 102 224 63 57 68 64 68 104 0 39 -8 51 -23 35z"/>
<path d="M1400 1344 c-65 -35 -79 -95 -50 -204 13 -49 8 -186 -8 -202 -5 -5
-40 -14 -78 -20 -43 -7 -81 -20 -101 -34 -17 -13 -36 -24 -42 -24 -14 0 -14
27 0 35 7 5 10 66 7 189 -3 176 -4 181 -24 184 -31 4 -41 -28 -14 -50 11 -9
17 -19 12 -21 -4 -3 -9 -70 -10 -149 -2 -79 -7 -155 -13 -170 -7 -17 -7 -32
-1 -45 14 -25 -12 -174 -40 -228 -8 -16 -19 -51 -22 -77 -4 -27 -11 -48 -15
-48 -13 0 -18 46 -16 157 2 76 -1 103 -11 107 -7 3 -16 2 -18 -3 -3 -4 -6 -66
-7 -137 -1 -128 -1 -129 25 -156 52 -53 61 -52 63 8 3 67 16 88 125 196 130
130 133 131 318 94 47 -10 123 -21 170 -27 205 -22 245 -34 235 -70 -3 -10 -7
-27 -10 -38 -6 -21 -47 -30 -135 -32 -30 0 -84 -6 -120 -14 l-65 -14 95 -1
c216 -3 224 -4 228 -23 12 -62 -28 -94 -142 -112 -88 -15 -130 -28 -141 -44
-3 -6 -16 -11 -28 -11 -38 0 -267 -96 -267 -111 0 -18 35 -17 60 1 15 11 32
20 37 20 6 0 43 16 84 36 80 40 210 84 247 84 12 0 25 -7 29 -15 9 -25 -26
-55 -63 -55 -18 0 -35 -4 -38 -9 -10 -16 32 -19 63 -4 34 17 64 11 55 -10 -8
-21 -98 -81 -176 -117 -38 -18 -68 -33 -68 -35 0 -6 156 -54 255 -79 105 -26
305 -60 311 -53 8 7 34 141 40 207 4 36 11 76 16 90 6 14 18 77 28 140 11 63
24 142 30 175 24 129 31 171 36 205 12 80 46 272 51 286 3 8 9 14 14 14 5 0 9
9 9 20 0 16 -7 20 -31 20 -16 0 -54 11 -82 25 -58 28 -141 50 -267 72 -106 18
-391 11 -466 -12 -27 -8 -62 -15 -77 -15 -26 0 -28 3 -25 32 3 29 9 35 53 53
28 11 59 26 70 32 40 24 -48 12 -95 -13z m500 -339 c41 -9 85 -23 98 -31 24
-16 24 -18 16 -102 -14 -136 -11 -219 8 -238 14 -15 18 -15 40 0 24 16 26 15
67 -23 l42 -39 -10 -58 c-6 -33 -13 -77 -16 -99 -10 -68 -28 -145 -34 -145 -3
0 -28 11 -56 25 -27 13 -58 25 -69 25 -10 0 -54 12 -96 26 -54 18 -77 31 -73
40 3 7 27 27 54 45 43 27 49 35 49 66 0 19 -5 44 -11 55 -8 15 -8 32 1 64 16
58 -2 89 -62 104 -95 23 -91 20 -92 78 -1 62 -23 87 -84 97 -20 3 -55 10 -77
15 -22 5 -77 17 -123 26 -49 10 -81 22 -79 28 5 17 71 47 125 56 67 13 294 4
382 -15z m-347 -125 c28 -11 71 -20 95 -20 36 0 42 -3 42 -21 0 -12 8 -23 19
-26 11 -3 21 -13 24 -23 4 -15 -3 -22 -27 -29 -17 -6 -42 -9 -56 -6 -14 3 -70
9 -125 15 -55 5 -119 15 -143 20 -56 13 -110 -1 -151 -39 -17 -16 -31 -33 -31
-38 0 -10 -57 -43 -76 -43 -20 0 -18 19 11 98 30 79 51 96 141 111 32 6 73 15
89 20 40 14 124 5 188 -19z"/>
</g>
</svg>
